<svg width="17" height="16" viewBox="0 0 17 16" fill="none" xmlns="http://www.w3.org/2000/svg">
<g clip-path="url(#clip0_322_374)">
<path d="M15.088 3.41888C15.088 3.43407 15.088 3.44926 15.088 3.46394C15.0723 5.33744 13.5396 6.83826 11.6686 6.83826H8.62695C9.66497 5.99772 10.186 4.72982 10.186 3.41888C10.186 2.10794 9.68776 0.900797 8.62695 0H11.6701C13.5411 0 15.0738 1.50335 15.088 3.37381C15.088 3.389 15.088 3.40419 15.088 3.41888Z" fill="white"/>
<path d="M7.98063 3.41888V3.46394C7.96443 5.33744 6.43171 6.83826 4.56074 6.83826H1.51758C2.35175 5.89474 2.81128 4.67827 2.80928 3.41888C2.8113 2.15964 2.35175 0.943316 1.51758 0L4.56074 0C6.43171 0 7.96443 1.50335 7.98063 3.37381V3.41888Z" fill="white"/>
<path d="M15.088 12.3828C15.088 12.3975 15.088 12.4127 15.088 12.4279C15.0723 14.2983 13.5396 15.8017 11.6686 15.8017H8.62695C9.66497 14.9611 10.186 13.6932 10.186 12.3828C10.186 11.0724 9.68776 9.86421 8.62695 8.9624H11.6701C13.5411 8.9624 15.0738 10.4658 15.0895 12.3367C15.088 12.3549 15.088 12.3676 15.088 12.3828Z" fill="white"/>
<path d="M7.98063 12.3828V12.4279C7.96443 14.2983 6.43171 15.8017 4.56074 15.8017H1.51758C2.35167 14.8583 2.8112 13.642 2.80928 12.3828C2.81153 11.1231 2.35198 9.90618 1.51758 8.9624H4.56074C6.43171 8.9624 7.96443 10.4658 7.98063 12.3367V12.3828Z" fill="white"/>
</g>
<defs>
<clipPath id="clip0_322_374">
<rect width="16" height="16" fill="white" transform="translate(0.517578)"/>
</clipPath>
</defs>
</svg>
