<svg width="20" height="20" viewBox="0 0 20 20" fill="none" xmlns="http://www.w3.org/2000/svg">
<path fill-rule="evenodd" clip-rule="evenodd" d="M7.50002 15H12.5C12.5 12.0833 15.8334 11.6667 15.8334 7.5C15.8334 4.27834 13.2217 1.66667 10 1.66667C6.77836 1.66667 4.16669 4.27834 4.16669 7.5C4.16669 11.6667 7.50002 12.5 7.50002 15Z" stroke="white" stroke-width="2" stroke-linejoin="round"/>
<path d="M12.0833 16.6667H7.91667C7.68655 16.6667 7.5 16.8532 7.5 17.0833C7.5 17.3135 7.68655 17.5 7.91667 17.5H12.0833C12.3135 17.5 12.5 17.3135 12.5 17.0833C12.5 16.8532 12.3135 16.6667 12.0833 16.6667Z" fill="white"/>
<path d="M11.25 18.3333H8.75004C8.51992 18.3333 8.33337 18.5199 8.33337 18.75C8.33337 18.9801 8.51992 19.1667 8.75004 19.1667H11.25C11.4802 19.1667 11.6667 18.9801 11.6667 18.75C11.6667 18.5199 11.4802 18.3333 11.25 18.3333Z" fill="white"/>
<path opacity="0.5" fill-rule="evenodd" clip-rule="evenodd" d="M9.16669 10.8333V15H10.8334V10.8333H11.6667C12.5872 10.8333 13.3334 10.0871 13.3334 9.16667C13.3334 8.24619 12.5872 7.5 11.6667 7.5C10.7462 7.5 10 8.24619 10 9.16667C10 8.24619 9.25383 7.5 8.33335 7.5C7.41288 7.5 6.66669 8.24619 6.66669 9.16667C6.66669 10.0871 7.41288 10.8333 8.33335 10.8333H9.16669Z" fill="white"/>
</svg>
