<svg width="20" height="20" viewBox="0 0 20 20" fill="none" xmlns="http://www.w3.org/2000/svg">
<path d="M2.50016 7.50008C3.42064 7.50008 4.16683 6.75389 4.16683 5.83341C4.16683 4.91294 3.42064 4.16675 2.50016 4.16675C1.57969 4.16675 0.833496 4.91294 0.833496 5.83341C0.833496 6.75389 1.57969 7.50008 2.50016 7.50008Z" stroke="white" stroke-width="1.5" stroke-miterlimit="10" stroke-linecap="round" stroke-linejoin="round"/>
<path d="M17.5002 7.50008C18.4206 7.50008 19.1668 6.75389 19.1668 5.83341C19.1668 4.91294 18.4206 4.16675 17.5002 4.16675C16.5797 4.16675 15.8335 4.91294 15.8335 5.83341C15.8335 6.75389 16.5797 7.50008 17.5002 7.50008Z" stroke="white" stroke-width="1.5" stroke-miterlimit="10" stroke-linecap="round" stroke-linejoin="round"/>
<path d="M15.8333 5.83337H12.5" stroke="white" stroke-width="1.5" stroke-miterlimit="10" stroke-linecap="round" stroke-linejoin="round"/>
<path d="M7.50033 5.83337H4.16699" stroke="white" stroke-width="1.5" stroke-miterlimit="10" stroke-linecap="round" stroke-linejoin="round"/>
<path d="M6.25016 13.75V15.4167C6.25016 15.925 5.94183 16.3667 5.5085 16.55C5.35016 16.625 5.1835 16.6667 5.00016 16.6667H3.3335C2.64183 16.6667 2.0835 16.1083 2.0835 15.4167V13.75C2.0835 13.0583 2.64183 12.5 3.3335 12.5H5.00016C5.69183 12.5 6.25016 13.0583 6.25016 13.75Z" stroke="white" stroke-width="1.5" stroke-miterlimit="10" stroke-linecap="round" stroke-linejoin="round"/>
<path d="M17.9167 13.75V15.4167C17.9167 16.1083 17.3583 16.6667 16.6667 16.6667H15C14.8167 16.6667 14.65 16.625 14.4917 16.55C14.0583 16.3667 13.75 15.925 13.75 15.4167V13.75C13.75 13.0583 14.3083 12.5 15 12.5H16.6667C17.3583 12.5 17.9167 13.0583 17.9167 13.75Z" stroke="white" stroke-width="1.5" stroke-miterlimit="10" stroke-linecap="round" stroke-linejoin="round"/>
<path d="M12.5 4.58337V7.08337C12.5 7.76671 11.9333 8.33337 11.25 8.33337H8.75C8.06667 8.33337 7.5 7.76671 7.5 7.08337V4.58337C7.5 3.90004 8.06667 3.33337 8.75 3.33337H11.25C11.9333 3.33337 12.5 3.90004 12.5 4.58337Z" stroke="white" stroke-width="1.5" stroke-miterlimit="10" stroke-linecap="round" stroke-linejoin="round"/>
<path d="M12.5 6.44165C14.475 7.44165 15.8333 9.59167 15.8333 12.0833C15.8333 12.225 15.825 12.3583 15.8083 12.5" stroke="white" stroke-width="1.5" stroke-miterlimit="10" stroke-linecap="round" stroke-linejoin="round"/>
<path d="M4.19199 12.5C4.17533 12.3583 4.16699 12.225 4.16699 12.0833C4.16699 9.59167 5.52533 7.44165 7.50033 6.44165" stroke="white" stroke-width="1.5" stroke-miterlimit="10" stroke-linecap="round" stroke-linejoin="round"/>
</svg>
