<svg width="20" height="20" viewBox="0 0 20 20" fill="none" xmlns="http://www.w3.org/2000/svg">
<g clip-path="url(#clip0_326_646)">
<path d="M10.0013 18.3337C14.6037 18.3337 18.3346 14.6027 18.3346 10.0003C18.3346 5.39795 14.6037 1.66699 10.0013 1.66699C5.39893 1.66699 1.66797 5.39795 1.66797 10.0003C1.66797 14.6027 5.39893 18.3337 10.0013 18.3337Z" stroke="white" stroke-width="1.5"/>
<path d="M6.66797 2.50049C6.66797 2.50049 9.16797 4.58382 11.2513 8.75049C13.3346 12.9172 13.7513 17.5005 13.7513 17.5005" stroke="white" stroke-width="1.5"/>
<path d="M1.66797 8.75033C1.66797 8.75033 5.41797 9.37531 10.0013 7.91699C14.5846 6.45867 15.8346 4.16699 15.8346 4.16699" stroke="white" stroke-width="1.5"/>
<path d="M18.3346 10.8337C18.3346 10.8337 15.0013 9.16702 10.8346 10.417C6.66797 11.667 4.16797 15.8337 4.16797 15.8337" stroke="white" stroke-width="1.5"/>
</g>
<defs>
<clipPath id="clip0_326_646">
<rect width="20" height="20" fill="white"/>
</clipPath>
</defs>
</svg>
