<svg width="20" height="20" viewBox="0 0 20 20" fill="none" xmlns="http://www.w3.org/2000/svg">
<path fill-rule="evenodd" clip-rule="evenodd" d="M2.91602 5.83317C2.91602 5.6025 3.10081 5.4165 3.32718 5.4165H16.6715C16.8993 5.4165 17.0827 5.60058 17.0827 5.83317C17.0827 6.06384 16.8979 6.24984 16.6715 6.24984H3.32718C3.09937 6.24984 2.91602 6.06576 2.91602 5.83317ZM2.91602 9.99984C2.91602 9.76917 3.10081 9.58317 3.32718 9.58317H16.6715C16.8993 9.58317 17.0827 9.76725 17.0827 9.99984C17.0827 10.2305 16.8979 10.4165 16.6715 10.4165H3.32718C3.09937 10.4165 2.91602 10.2324 2.91602 9.99984ZM2.91602 14.1665C2.91602 13.9358 3.10081 13.7498 3.32718 13.7498H16.6715C16.8993 13.7498 17.0827 13.9339 17.0827 14.1665C17.0827 14.3972 16.8979 14.5832 16.6715 14.5832H3.32718C3.09937 14.5832 2.91602 14.3991 2.91602 14.1665Z" stroke="white"/>
</svg>
