<svg width="17" height="16" viewBox="0 0 17 16" fill="none" xmlns="http://www.w3.org/2000/svg">
<path fill-rule="evenodd" clip-rule="evenodd" d="M0.517578 0.5C0.517578 0.223857 0.741436 0 1.01758 0H16.0176C16.2937 0 16.5176 0.223858 16.5176 0.5V2.24C16.5176 2.5303 16.1666 2.67568 15.9613 2.47041C15.8341 2.34316 15.6278 2.34316 15.5005 2.47041L12.5309 5.44L9.33091 8.64001L6.48446 11.4864C6.2892 11.6817 5.97262 11.6817 5.77736 11.4864L2.93092 8.64001L1.53466 7.24375C1.40741 7.11649 1.20109 7.11649 1.07384 7.24374C0.868564 7.44902 0.517578 7.30363 0.517578 7.01333V0.5ZM2.93092 15.04L3.03737 15.1464C3.35235 15.4614 3.12926 16 2.68381 16H1.01758C0.741436 16 0.517578 15.7761 0.517578 15.5V13.8338C0.517578 13.3883 1.05615 13.1652 1.37113 13.4802L2.93092 15.04ZM9.33091 15.04L12.5309 11.84L15.7309 8.64001C16.0212 8.3497 16.5176 8.5553 16.5176 8.96585V15.5C16.5176 15.7761 16.2937 16 16.0176 16H9.57802C9.13257 16 8.90948 15.4614 9.22446 15.1464L9.33091 15.04Z" fill="white"/>
</svg>
