<svg width="20" height="16" viewBox="0 0 20 16" fill="none" xmlns="http://www.w3.org/2000/svg">
<path fill-rule="evenodd" clip-rule="evenodd" d="M6.14371 3.63665L11.6883 3.66338C12.7211 3.66338 14.6236 3.4228 15.3303 4.0109C15.7924 4.41187 16.336 6.04248 14.1073 6.04248H11.335C8.01908 6.04248 5.70884 5.8821 4.40422 8.28792C3.34423 10.2126 2.93654 14.3025 3.69756 15.9331C3.915 13.8213 3.77911 12.5115 5.68166 10.8006C8.88882 7.86022 14.7868 10.5066 17.7221 8.44832C19.815 7.00481 20.1139 3.52972 18.2386 1.41794C17.3416 0.402147 16.0914 -0.0255555 14.2703 0.00117595H0.517578C0.707834 0.321953 1.38732 0.856578 1.68629 1.1239C2.47449 1.79218 3.28987 2.62086 4.18679 3.28914C4.75756 3.69011 5.32833 3.63665 6.14371 3.63665Z" fill="white"/>
<path fill-rule="evenodd" clip-rule="evenodd" d="M7.88279 11.4417C4.81152 12.11 5.81716 16.6009 8.88846 15.9326C9.97561 15.692 10.9269 14.5425 10.6279 13.1793C10.3833 12.1367 9.26898 11.1477 7.88279 11.4417Z" fill="white"/>
</svg>
