<svg width="20" height="20" viewBox="0 0 20 20" fill="none" xmlns="http://www.w3.org/2000/svg">
<path d="M16.4665 3.06628L6.29074 1.26941C5.96431 1.21197 5.62842 1.28652 5.35694 1.47669C5.08547 1.66685 4.90063 1.95705 4.84309 2.28347L2.51887 15.4866C2.49044 15.6483 2.49417 15.8141 2.52983 15.9744C2.56549 16.1347 2.63239 16.2864 2.72671 16.4209C2.82103 16.5553 2.94092 16.6699 3.07952 16.7579C3.21812 16.846 3.37273 16.9059 3.53449 16.9343L13.7103 18.7311C13.8721 18.7597 14.0379 18.756 14.1983 18.7204C14.3587 18.6848 14.5105 18.6179 14.6451 18.5236C14.7796 18.4293 14.8942 18.3093 14.9823 18.1707C15.0705 18.032 15.1304 17.8773 15.1587 17.7155L17.4829 4.51238C17.5399 4.18584 17.4648 3.85005 17.2742 3.57886C17.0836 3.30768 16.7931 3.1233 16.4665 3.06628ZM13.9259 17.4999L3.74934 15.703L6.07356 2.49988L16.2493 4.29675L13.9259 17.4999ZM6.97903 4.56394C7.00798 4.40079 7.10053 4.25582 7.23633 4.16089C7.37214 4.06596 7.54008 4.02884 7.70324 4.05769L14.1876 5.20222C14.3417 5.22922 14.4801 5.31303 14.5754 5.43711C14.6707 5.56118 14.716 5.71649 14.7024 5.87235C14.6888 6.02821 14.6172 6.17328 14.5017 6.27891C14.3863 6.38454 14.2355 6.44304 14.079 6.44285C14.0424 6.4428 14.0058 6.43966 13.9697 6.43347L7.48528 5.28816C7.32213 5.25921 7.17716 5.16666 7.08222 5.03085C6.98729 4.89505 6.95017 4.7271 6.97903 4.56394ZM6.54621 7.02644C6.56046 6.94559 6.59049 6.86833 6.6346 6.79909C6.67871 6.72985 6.73603 6.66998 6.80328 6.62289C6.87054 6.57581 6.94641 6.54243 7.02656 6.52468C7.10672 6.50692 7.18959 6.50513 7.27043 6.51941L13.7548 7.66472C13.91 7.69068 14.0497 7.77422 14.146 7.89865C14.2423 8.02309 14.2881 8.17927 14.2743 8.33601C14.2605 8.49275 14.1881 8.63852 14.0715 8.7442C13.9549 8.84988 13.8028 8.90771 13.6454 8.90613C13.6085 8.9062 13.5716 8.9028 13.5353 8.89597L7.0509 7.75144C6.88788 7.72214 6.74316 7.62932 6.64853 7.49338C6.5539 7.35744 6.5171 7.1895 6.54621 7.02644ZM6.11262 9.48816C6.14211 9.32544 6.23489 9.18105 6.37063 9.0866C6.50638 8.99215 6.67402 8.95535 6.83684 8.98425L10.0775 9.55379C10.2315 9.58077 10.3698 9.66453 10.4651 9.78851C10.5604 9.9125 10.6058 10.0677 10.5923 10.2235C10.5787 10.3793 10.5073 10.5244 10.392 10.6301C10.2767 10.7358 10.126 10.7944 9.96965 10.7944C9.93299 10.7944 9.8964 10.7913 9.86028 10.785L6.61809 10.2124C6.45509 10.1832 6.3103 10.0906 6.21553 9.95484C6.12076 9.81905 6.08375 9.65121 6.11262 9.48816Z" fill="white"/>
</svg>
