<svg width="20" height="20" viewBox="0 0 20 20" fill="none" xmlns="http://www.w3.org/2000/svg">
<path fill-rule="evenodd" clip-rule="evenodd" d="M2.5 13.3332V14.1665H3.33333H16.6667H17.5V13.3332V5.82934C17.5 4.91671 16.7509 4.1665 15.8326 4.1665H4.16739C3.2452 4.1665 2.5 4.90941 2.5 5.82934V13.3332Z" stroke="white" stroke-width="1.5"/>
<path fill-rule="evenodd" clip-rule="evenodd" d="M0 13.4272H20V14.564C20 15.1918 19.4442 15.7007 18.7489 15.7007H1.25109C0.560132 15.7007 0 15.1961 0 14.564V13.4272ZM15.8333 14.564C15.8333 14.7671 16.0199 14.9429 16.25 14.9429C16.4734 14.9429 16.6667 14.7732 16.6667 14.564C16.6667 14.3608 16.4801 14.1851 16.25 14.1851C16.0266 14.1851 15.8333 14.3547 15.8333 14.564Z" fill="white"/>
</svg>
